<?xml version="1.0" encoding="UTF-8" standalone="no"?>
<svg
   xmlns:dc="http://purl.org/dc/elements/1.1/"
   xmlns:cc="http://creativecommons.org/ns#"
   xmlns:rdf="http://www.w3.org/1999/02/22-rdf-syntax-ns#"
   xmlns:svg="http://www.w3.org/2000/svg"
   xmlns="http://www.w3.org/2000/svg"
   viewBox="0 0 628.91248 653.25"
   height="653.25"
   width="628.91248"
   xml:space="preserve"
   version="1.1"
   id="svg2"><metadata
     id="metadata8"><rdf:RDF><cc:Work
         rdf:about=""><dc:format>image/svg+xml</dc:format><dc:type
           rdf:resource="http://purl.org/dc/dcmitype/StillImage" /></cc:Work></rdf:RDF></metadata><defs
     id="defs6" /><g
     transform="matrix(1.25,0,0,-1.25,0,653.25)"
     id="g10"><g
       transform="scale(0.1,0.1)"
       id="g12"><path
         id="path14"
         style="fill:#231f20;fill-opacity:1;fill-rule:nonzero;stroke:none"
         d="M 472.516,5106.1 98.3945,4774.38 c -11.3398,-10.06 -28.7617,-9.02 -38.8203,2.34 -10.0586,11.34 -9.0078,28.75 2.3321,38.81 l 374.1287,331.72 c 11.336,10.06 28.762,9.02 38.809,-2.33 10.074,-11.35 9.023,-28.76 -2.328,-38.82 M 458.035,4983 222.344,4774.02 c -3.539,-3.13 -12.328,-1.17 -18.809,6.15 -6.488,7.31 -7.39,16.28 -3.863,19.41 l 235.703,208.99 c 3.531,3.13 12.328,1.16 18.809,-6.16 6.492,-7.31 7.379,-16.28 3.851,-19.41 M 50.0625,4972.09 282.016,5177.76 c 12.379,10.97 31.379,9.83 42.359,-2.55 10.973,-12.38 9.828,-31.38 -2.551,-42.35 L 89.8711,4927.2 c -12.375,-10.98 -31.375,-9.84 -42.3555,2.54 -10.9726,12.38 -9.832,31.38 2.5469,42.35 m 38.0234,190.75 c 34.3401,30.44 85.1291,30.55 119.6411,2.5 L 71.2852,5044.37 c -23.7227,37.61 -17.5313,88.03 16.8007,118.47 m 321.4101,14.34 -38.805,-34.4 c 3.704,20.42 -1.586,42.27 -16.394,58.97 -25.602,28.88 -69.934,31.54 -98.813,5.93 l -17.519,-15.53 c -49.402,44.44 -125.547,45.72 -176.4142,0.62 C 10.6836,5147.67 2.84766,5071.91 41.043,5017.55 l -17.5157,-15.53 c -28.88277,-25.61 -31.53902,-69.93 -5.9335,-98.82 14.8007,-16.69 35.8554,-24.57 56.5703,-23.35 L 35.375,4845.47 c -27.85156,-24.7 -30.41797,-67.44 -5.7305,-95.29 24.6993,-27.85 67.4414,-30.42 95.2935,-5.73 l 52.804,46.83 c 0.641,-8.26 4.211,-16.93 10.821,-24.38 13.792,-15.56 34.46,-19 47.05,-7.85 l 235.692,208.98 c 12.59,11.17 11.64,32.09 -2.149,47.65 -6.613,7.46 -14.793,12.05 -22.91,13.67 l 52.809,46.82 c 27.84,24.69 30.418,67.43 5.73,95.29 -24.703,27.84 -67.449,30.41 -95.289,5.72" /><path
         id="path16"
         style="fill:#231f20;fill-opacity:1;fill-rule:nonzero;stroke:none"
         d="m 965.066,3977 c -19.57,1.5 -39.406,15.09 -29.121,35.17 l 337.365,46.49 34.27,-38.83 L 965.066,3977 Z m 440.784,10.95 c 0,0 -42.9,100.07 -93.67,97.65 -19.14,-2.53 -465.641,-61.74 -465.641,-61.74 0.438,-29.7 39.777,-82.24 75.488,-93.21 l 483.823,57.3" /><path
         id="path18"
         style="fill:#231f20;fill-opacity:1;fill-rule:nonzero;stroke:none"
         d="m 1464.03,3932.74 c -5.83,21.45 -22.59,39.63 -44.9,45.16 -26.69,-3.53 -478.177,-60.52 -485.345,-62.19 6.137,-42.38 60.27,-92.13 81.035,-102.86 4.92,0.49 304.57,36.14 304.57,36.14 l 169.53,61.9 -442.45,-48.25 c -16.83,1.55 -37.44,27.65 -35.22,41.35 l 404.58,50.5 c 0,0 17.1,-18.81 34.02,-35.83 l 14.18,14.08" /><path
         id="path20"
         style="fill:#231f20;fill-opacity:1;fill-rule:nonzero;stroke:none"
         d="m 859.348,4113.22 329.972,44.69 c 20.47,-20.79 8.94,-10.71 29.61,-31.64 L 888.805,4079.8 c -23.16,1.64 -37.41,14.9 -29.457,33.42 m 439.692,-15.43 c -7.24,34.07 -49.05,76.35 -81.61,83.39 l -447.723,-60.69 c -5.73,-33.97 39.75,-77.73 69.578,-86.92 l 459.755,64.22" /><path
         id="path22"
         style="fill:#231f20;fill-opacity:1;fill-rule:nonzero;stroke:none"
         d="m 1099.77,3780.57 214.78,25.11 -5.21,18.13 c 0,0 -271.02,-32.94 -275.84,-34.37 3.05,-17.56 37.65,-78.3 73.9,-94.22 6.6,1.69 112.82,17.82 112.82,17.82 l 21.51,42.23 -107.95,-14.85 c -24.9,-0.19 -34.01,40.15 -34.01,40.15" /><path
         id="path24"
         style="fill:#231f20;fill-opacity:1;fill-rule:nonzero;stroke:none"
         d="m 1189.67,3676.07 c -37.71,-4.7 -66.3,-8.35 -67.88,-8.81 1.62,-9.33 12.13,-30.81 27.06,-51.32 13.15,14.92 31.68,41.8 40.82,60.13" /><path
         id="path26"
         style="fill:#231f20;fill-opacity:1;fill-rule:nonzero;stroke:none"
         d="m 812.617,4175.14 c -19.73,4.39 -41.441,26.36 -25.562,44.55 l 290.995,45.19 c 8.67,-8.88 22.17,-26.52 35.08,-39.56 l -300.513,-50.18 z m 386.943,23.27 c -7.93,30.06 -65.03,76.89 -82.93,84.19 -8.13,-1.49 -424.372,-67 -424.372,-67 5.887,-35.99 36.918,-69.74 68.289,-84.79 0,0 431.603,65.69 439.013,67.6" /><path
         id="path28"
         style="fill:#231f20;fill-opacity:1;fill-rule:nonzero;stroke:none"
         d="m 744.898,4272.76 c -23.253,-1.58 -39.941,15.36 -25.468,32.38 l 257.828,44.54 c 19.719,-6.84 29.912,-18.65 28.152,-32.6 l -260.512,-44.32 z m 356.572,25.36 c -5.01,26.4 -49.37,76.44 -78.09,80.48 -7.52,-1.99 -404.419,-74.43 -404.419,-74.43 5.477,-30.74 34.867,-63.9 61.918,-75.24 7.09,1.88 413.271,67.11 420.591,69.19" /><path
         id="path30"
         style="fill:#231f20;fill-opacity:1;fill-rule:nonzero;stroke:none"
         d="m 670.113,4363.77 c -33.148,1.04 -54.609,27.12 -30.011,44.02 l 232.168,51.5 c 21.25,-6.94 42.882,-32.83 34.914,-46.72 l -237.071,-48.8 z m 334.417,34.41 c -0.53,20.61 -50.249,82.61 -87.221,91.62 -8.036,-1.16 -383.571,-84.53 -383.571,-84.53 2.934,-27.47 41.086,-70.48 71.336,-85.43 0,0 392.328,76.22 399.456,78.34" /><path
         id="path32"
         style="fill:#231f20;fill-opacity:1;fill-rule:nonzero;stroke:none"
         d="m 593.082,4461.68 c -29.398,-4.8 -51.793,20.45 -32.215,36.14 l 241.965,54.43 c 26.566,-9.04 37.758,-20.8 36.148,-37.84 l -245.898,-52.73 z m 308.691,44.37 c -4.472,29.45 -43.351,65.7 -69.464,79.31 l -375.707,-88.1 c 3.902,-27.05 32.207,-63.33 65.296,-78.22 l 379.875,87.01" /><path
         id="path34"
         style="fill:#231f20;fill-opacity:1;fill-rule:nonzero;stroke:none"
         d="m 495.563,4586.04 223.23,57.66 c 21.289,-0.3 29.609,-15.81 24.09,-24.04 L 514.57,4558.1 c -14.398,2.27 -32.644,11.71 -19.007,27.94 m 246.031,88.73 -356.621,-97.35 c 2.269,-19.44 28.308,-55.1 54.328,-62.1 7.719,1.36 366.594,90.05 366.594,90.05 -2.805,25.92 -35.793,54.59 -64.301,69.4" /><path
         id="path36"
         style="fill:#231f20;fill-opacity:1;fill-rule:nonzero;stroke:none"
         d="m 431.211,4644.56 c -14.133,0.58 -21.41,13.9 -19.879,26.39 l 224.602,59.92 c 18.586,-1.23 24.925,-12.42 16.546,-23.33 l -221.269,-62.98 z m 292.871,53.09 c -9.371,25.66 -34.57,50.66 -58.519,62.87 l -356.985,-96.59 c 5.961,-28.13 31.66,-57.13 59.383,-68.15 l 356.121,101.87" /><path
         id="path38"
         style="fill:#231f20;fill-opacity:1;fill-rule:nonzero;stroke:none"
         d="m 353.344,4725.78 c -16.231,3.15 -21.949,11.27 -24.899,28.43 l 225.571,76.57 c 18.289,1.4 30.968,-24.24 21.668,-36.48 l -222.34,-68.52 z m 227.633,131.22 -325.2,-101.57 -15.894,-13.76 c 6.18,-29.59 27.762,-48.88 57.945,-65.54 l 345.195,110.88 c -7.101,25.16 -34.144,58.53 -62.046,69.99" /><path
         id="path40"
         style="fill:#231f20;fill-opacity:1;fill-rule:nonzero;stroke:none"
         d="m 335.367,4814.45 141.61,122.69 c 21.546,-7.34 37.902,-26.61 32.859,-45.21 l -174.469,-77.48 z m 221.028,69.19 c -16.649,49.29 -47.457,72.09 -72.29,81.26 l -208.57,-184.92 280.86,103.66" /><path
         id="path42"
         style="fill:#231f20;fill-opacity:1;fill-rule:nonzero;stroke:none"
         d="m 1392.82,3681.23 c 4.3,-2.81 14.13,-10.65 13.76,-23.13 L 567.5,2957.99 c -4.965,-0.92 -10.012,-2.6 -15.066,-5.37 -44.961,-24.62 -75.801,-76.67 -93.274,-117.93 -2.777,-6.55 -5.316,-13.06 -8.129,-19.09 -25.379,10.4 21.442,136.02 63.949,170 11.313,1.62 22.762,-1.69 32.27,3.63 l 25.82,44.06 c -83.367,-46.28 -312.64,93.25 -186.925,208.74 65.347,60.03 115.218,14.57 126.746,0.74 19.293,-23.09 15.972,-57.38 -18.239,-80.97 -25.621,-17.65 -48.367,-7.05 -62.257,4.76 8.269,0.81 17.796,5.03 26.21,12.48 15.145,13.43 20.747,31.86 12.5,41.15 -8.253,9.31 -27.214,5.95 -42.367,-7.48 -8.664,-7.69 -14.066,-16.98 -15.687,-25.28 -6.84,-19.99 4.801,-46.44 32.293,-55.51 l 3.156,-37.33 c 5.801,-3.59 159.723,-78.03 415.555,127.09 l -73.035,-23.02 c -202.407,-158.44 -322.321,-94.6 -327.446,-91.5 l -8.804,21.66 c 16.324,-4 35.906,-1.36 56.515,13.4 4.61,3.29 8.778,6.83 12.676,10.49 193.363,53.57 382.973,143.89 496.129,244.22 188.22,166.89 278.35,339.63 295.04,373.97 2.92,-3.02 8.32,-9.77 10.95,-19.79 -31.61,-97.8 -231.95,-325.43 -231.95,-325.43 l 298.69,255.55 z M 553.492,3206.7 c 22.309,1.62 91.543,8.32 167.11,30.05 -51.481,-23.49 -117.704,-44.69 -178.161,-61.24 5.821,9.9 9.551,20.42 11.051,31.19 m 193,-232.93 c -3.75,-23.46 -12.879,-41.51 -20.371,-40.31 -7.5,1.2 -10.539,21.2 -6.789,44.65 3.758,23.47 12.879,41.51 20.379,40.32 7.5,-1.2 10.543,-21.2 6.781,-44.66 m 518.188,826.29 c 0,0 -85.51,-258.65 -353.938,-452.61 -161.609,-109.41 -328.941,-128.91 -356.469,-131.39 0.329,16.34 -4.418,32.99 -14.761,48.65 -16.231,24.58 -103.102,75.64 -181.668,5.98 -129.992,-115.27 -4.031,-257.13 107.508,-282.3 -16.957,-28.74 -88.071,-158.54 -34.879,-218.53 4.726,-5.33 11.199,-7.77 17.742,-6.7 14.168,2.33 20.535,17.35 33.215,47.29 15.429,36.46 38.769,91.56 74.644,104.45 14.219,5.12 29.719,3.33 47.348,-5.48 4.801,-4.33 9.699,-8.9 14.68,-13.55 32.164,-29.97 68.621,-63.96 108.968,-61.03 15.649,1.14 30.371,7.8 43.961,19.84 4.883,4.33 9.61,9.36 14.188,15.06 26.144,32.61 24.523,64.53 22.972,95.39 -2.105,41.6 -4.289,84.61 61.731,143.15 31.43,27.86 43.91,26.56 46.992,25.5 9.207,-3.17 13.551,-26.73 16.137,-40.81 3.301,-17.91 6.152,-33.38 21.043,-35.7 14.91,-2.33 24.234,12.57 33.261,29.39 7.375,13.77 14.485,29.44 22.005,46.04 42.53,93.84 115.85,221.81 298.09,197.6 l -44.21,49.87 c -81.96,10.88 -134.22,-8.65 -173.49,-44.7 2.86,5.86 -186.852,-130.16 -185.457,-141.59 1.371,-11.25 60.762,-0.7 60.16,-40.22 12.527,2.2 28.149,100.14 117.787,174.88 0.66,0.56 1.06,0.92 1.59,1.37 -54.92,-52.6 -78.15,-132.65 -101.799,-184.83 -6.988,-15.44 -13.609,-30.05 -20.238,-42.58 -4.238,22.66 -8.563,57.53 -32.852,65.89 -20.257,6.98 -51.3,-4.26 -83.339,-32.68 -12.461,-11.05 -22.512,-21.85 -30.918,-32.42 -26.184,-1.2 -201.344,-129.78 -187.825,-141.93 0,0 74.235,-107.46 110.293,-68.54 43.278,46.73 14.926,154.05 70.77,201.53 -36.18,-50.96 -31.473,-95.81 -29.699,-130.74 1.449,-28.71 -1.461,-48.01 -20.469,-71.73 -12.063,-15.06 -26.293,-20.34 -39.055,-21.27 -27.316,-1.98 -48.386,24.82 -76.066,50.62 -4.059,3.78 -26.903,30.4 -55.324,36.34 l 847.921,685.36 -18.92,23.29 -17.7,19.96 -0.87,0.97 -68.23,76.96 -11.48,12.95 -53.35,23" /><path
         id="path44"
         style="fill:#231f20;fill-opacity:1;fill-rule:nonzero;stroke:none"
         d="m 1699.44,3962.39 c 0,0 -249.98,-171.65 -350.85,-191.32 -9.63,3.81 -15.68,9.98 -18.34,13.23 36.09,12.46 218.38,81.26 406.6,248.15 113.16,100.33 225.52,277.77 301.86,463.32 4.11,3.44 8.12,7.14 11.94,11.33 17.12,18.7 22.08,37.83 20.07,54.51 l 20.45,-11.33 c 2.46,-5.47 51.48,-132.16 -130.04,-314.14 l -31.6,-69.75 c 234.27,229.43 178.8,391.15 175.92,397.32 l -36.68,7.62 c -5.71,28.39 -30.58,43.11 -51.24,38.71 -8.45,-0.6 -18.31,-4.86 -26.99,-12.56 -15.13,-13.42 -20.74,-31.85 -12.5,-41.15 8.25,-9.29 27.22,-5.94 42.37,7.49 8.4,7.45 13.73,16.41 15.52,24.52 10.06,-15.2 17.87,-39.06 -2.73,-62.38 -27.51,-31.13 -61.95,-30.32 -82.57,-8.41 -12.35,13.11 -51.52,68.06 15.91,125.74 129.71,110.98 240.79,-133.35 184.86,-210.57 l 46.82,20.36 c 6.43,8.8 4.52,20.57 7.47,31.6 38.84,38.14 169.16,69.58 176.44,43.13 -6.31,-2.06 -13.1,-3.8 -19.91,-5.77 -43.06,-12.41 -98.43,-36.8 -128.26,-78.49 -3.35,-4.69 -5.63,-9.49 -7.13,-14.31 l -795.55,-749.23 c -12.42,1.13 -19.04,11.83 -21.31,16.43 l 289.47,265.95 z m 314.43,517.77 c -23.68,-58.05 -52.63,-121.25 -82.14,-169.56 30.63,72.43 45.56,140.35 49.85,162.31 10.88,0.22 21.77,2.65 32.29,7.25 M 2146.2,4265.5 c -0.29,7.59 18.71,14.48 42.46,15.4 23.75,0.92 43.24,-4.49 43.52,-12.08 0.31,-7.59 -18.72,-14.48 -42.45,-15.4 -23.74,-0.91 -43.23,4.49 -43.53,12.08 m -822.41,-483.33 11.48,-12.96 68.23,-76.95 0.88,-0.97 17.7,-19.96 20.84,-21.57 781.94,759.75 c 2.5,-28.91 26.2,-54.79 29.47,-59.27 22.29,-30.56 46.37,-54.7 41.14,-81.58 -2.45,-12.56 -9.39,-26.05 -25.79,-36.22 -25.82,-16.03 -45.34,-16.61 -73.67,-11.73 -34.47,5.93 -78.43,15.98 -133.35,-13.84 53.82,49.75 156.99,8.76 208.55,46.14 42.97,31.13 -54.84,117.7 -54.84,117.7 -10.44,14.88 -159.07,-143.64 -163.39,-169.47 -11.51,-7.1 -23.44,-15.78 -35.89,-26.82 -32.05,-28.42 -46.93,-57.89 -42.43,-78.83 5.4,-25.11 39.51,-33.59 61.48,-40.51 -13.22,-5.08 -28.53,-9.9 -44.68,-14.99 -54.65,-17.24 -136.9,-30.72 -195.7,-78.94 0.51,0.46 0.92,0.82 1.55,1.41 84.93,80.05 184.03,83.83 187.73,96.01 -39.31,4.13 -21.73,61.83 -32.73,64.54 -11.18,2.75 -168.93,-169.3 -162.78,-167.18 -40.49,-34.67 -66.14,-84.21 -65.15,-166.89 l 44.22,-49.86 c -2.22,183.83 133.61,241.3 231.87,272.29 17.37,5.48 33.79,10.66 48.34,16.34 17.78,6.95 33.69,14.42 33.16,29.5 -0.51,15.07 -15.54,19.74 -32.93,25.16 -13.66,4.26 -36.54,11.38 -38.58,20.93 -0.67,3.17 -0.46,15.72 30.95,43.58 66.02,58.54 108.46,51.23 149.51,44.16 30.45,-5.24 61.93,-10.67 97.45,11.38 6.22,3.85 11.77,7.96 16.65,12.28 13.59,12.04 21.96,25.87 24.97,41.26 7.74,39.73 -21.65,79.98 -47.55,115.5 -4.03,5.49 -7.97,10.9 -11.69,16.2 -6.64,18.56 -6.56,34.16 0.22,47.67 17.09,34.06 74.6,50.64 112.64,61.59 31.24,9 46.91,13.52 50.92,27.32 1.86,6.37 0.2,13.08 -4.53,18.41 -53.19,59.99 -190.56,4.93 -221.13,-8.47 -11.64,113.76 -137.39,255.8 -267.39,140.54 -78.56,-69.66 -38.29,-162.01 -15.81,-181.09 14.3,-12.13 30.26,-18.83 46.52,-20.46 -5.76,-27.04 -45.15,-190.84 -173.11,-338.17 -224.7,-243.29 -491.74,-297.21 -491.74,-297.21 l 16.45,-55.72" /><path
         id="path46"
         style="fill:#231f20;fill-opacity:1;fill-rule:nonzero;stroke:none"
         d="m 1466.77,3630.95 c 0,0 131.87,-180.44 132.68,-149.65 -20.72,25.43 -30.8,52.59 -33.47,80.37 146.58,-164.91 701.19,-789.42 1258.97,-1424.93 C 3881.03,933.43 4170.91,577.289 4219.5,503.711 4152.25,560.75 3833.4,891.148 2765.19,2083.72 2196.47,2718.66 1638.47,3349.05 1497.8,3508.12 c 29.63,-5.21 57.66,-18.61 82.2,-44.07 30.66,-2.89 -132.69,149.64 -132.69,149.64 l -288.45,-222.34 c 24.08,-16.15 177.35,120.45 310.3,119.34 121.5,-134.32 705.01,-779.1 1290.55,-1432.81 384.74,-429.53 699,-777.03 934.13,-1032.91 300.93,-327.509 491.92,-527.349 536.95,-558.029 l 9.02,-6.14 -5.02,9.668 c -25.07,48.383 -200.62,261.929 -489.72,599.911 -225.91,264.08 -533.28,617.69 -913.66,1051.07 -577.33,657.81 -1145.1,1309.96 -1265.81,1448.55 10.03,134.26 169.83,274.41 156.45,300.71 l -255.28,-259.76" /><path
         id="path48"
         style="fill:#231f20;fill-opacity:1;fill-rule:nonzero;stroke:none"
         d="m 1688.39,3821.71 -15.55,-24.08 c 0,0 -25.84,-63.78 3.65,-99.17 l -0.04,-0.04 c 0.06,-0.05 0.27,-0.3 0.38,-0.43 0.31,-0.34 0.52,-0.71 0.82,-1.07 l 0.09,0.08 c 34.13,-37.92 759.65,-844.61 1471.34,-1684.05 C 4333.02,616.492 4608.24,159.559 4627.64,43.3711 4514.64,76.5586 4093.94,404.492 2849.31,1747.06 2101.11,2554.13 1387.05,3371.07 1353.48,3409.5 l 0,0 c -0.64,0.74 -1.12,1.3 -1.26,1.44 l -0.12,-0.1 c -31.61,33.52 -98.02,15.49 -98.02,15.49 l -25.77,-12.55 c 43.21,12.73 95.1,-30.7 95.23,-30.81 35.81,-41 749.05,-856.9 1496.38,-1663.05 C 3268.19,1236.38 3640.83,850.91 3927.5,574.219 4294.42,220.109 4557.83,0.96875 4647.96,0.171875 L 4666.02,0 l 2,17.9492 C 4678.01,107.539 4492.08,395.359 4184.44,802.051 3944.06,1119.78 3605.98,1535.89 3179.59,2038.82 2466.1,2880.39 1738.67,3689.09 1707.21,3724.04 c -3.66,5.81 -35.67,58.56 -18.82,97.67" /><path
         id="path50"
         style="fill:#ffffff;fill-opacity:1;fill-rule:nonzero;stroke:none"
         d="m 825.82,503.699 c 48.598,73.59 338.5,429.692 1394.6,1632.991 557.8,635.6 1112.4,1260.11 1258.9,1425 -2.6,-27.79 -12.7,-55 -33.4,-80.39 0.2,-9.1 11.8,0.2 28.1,17.8 l 8.8,-1.2 c -17.6,-20.3 -27.1,-34.7 -17.5,-33.8 24.6,25.4 52.6,38.8 82.2,44 -140.7,-159 -698.6,-789.4 -1267.4,-1424.4 C 1211.92,891.199 893.121,560.801 825.82,503.699" /><path
         id="path52"
         style="fill:#ffffff;fill-opacity:1;fill-rule:nonzero;stroke:none"
         d="m 3576.23,3510.69 c 86.19,0.7 180.99,-56.5 243.49,-92.3 l -2.7,-4.6 -25.79,12.5 c 0,0 -66.41,18.1 -98.01,-15.49 l -0.1,0.19 c -0.1,-0.19 -0.6,-0.79 -1.3,-1.5 -33.49,-38.4 -747.6,-855.39 -1495.8,-1662.4 C 951.426,404.5 530.727,76.6016 417.715,43.3906 437.113,159.59 712.313,616.492 1896.23,2012.99 c 711.69,839.4 1437.29,1646.1 1471.39,1684 l 0.1,-0.1 c 0.3,0.4 0.5,0.81 0.8,1.1 0.1,0.11 0.3,0.4 0.4,0.4 l -0.1,0.1 c 29.51,35.4 3.7,99.1 3.7,99.1 l -15.6,24.1 3.6,2.7 C 3405.02,3765 3473.33,3676.29 3479.72,3590 3359.02,3451.39 2791.23,2799.29 2213.93,2141.49 1833.52,1708.09 1526.23,1354.5 1300.21,1090.4 1011.13,752.398 835.613,538.891 810.527,490.492 l -5,-9.691 9,6.09 C 859.613,517.59 1050.62,717.5 1351.51,1045 c 235.12,255.89 549.42,603.39 934.11,1032.9 585.61,653.69 1169.1,1298.49 1290.61,1432.79" /><path
         id="path54"
         style="fill:#231f20;fill-opacity:1;fill-rule:nonzero;stroke:none"
         d="m 4960,5042.26 c 23.7,37.6 17.5,87.99 -16.81,118.5 -34.3,30.4 -85.1,30.49 -119.6,2.5 l 136.41,-121 z m 11.69,-267.61 c 10.1,11.31 9,28.71 -2.3,38.81 l -374.2,331.7 c -11.3,10 -28.7,9 -38.8,-2.3 -10,-11.4 -9,-28.8 2.4,-38.9 l 374.11,-331.7 c 11.29,-10 28.7,-9 38.79,2.39 m 12.1,153.01 c 10.9,12.39 9.8,31.4 -2.59,42.3 l -231.91,205.7 c -12.4,11 -31.39,9.79 -42.4,-2.6 -11,-12.3 -9.8,-31.3 2.5,-42.3 l 232,-205.71 c 12.4,-10.89 31.4,-9.8 42.4,2.61 m -406.7,72.59 c -6.5,-7.3 -7.4,-16.19 -3.9,-19.39 l 235.7,-208.9 c 3.61,-3.21 12.4,-1.2 18.8,6.1 6.5,7.3 7.4,16.3 3.91,19.4 l -235.71,209 c -3.5,3.09 -12.3,1.2 -18.8,-6.21 M 4560,4965.96 c -12.61,11.09 -11.7,32.1 2.09,47.59 6.61,7.5 14.8,12.1 22.91,13.71 l -52.81,46.8 c -27.8,24.69 -30.4,67.4 -5.7,95.3 24.71,27.79 67.4,30.4 95.3,5.69 l 38.8,-34.39 c -3.7,20.39 1.6,42.29 16.4,58.99 25.6,28.9 69.9,31.51 98.81,5.91 l 17.5,-15.51 c 49.39,44.41 125.59,45.71 176.39,0.61 50.9,-45.1 58.7,-120.9 20.5,-175.21 l 17.5,-15.49 c 28.91,-25.6 31.6,-70 6.01,-98.91 -14.81,-16.69 -35.91,-24.49 -56.61,-23.3 l 38.8,-34.39 c 27.9,-24.7 30.4,-67.4 5.71,-95.3 -24.71,-27.81 -67.41,-30.4 -95.31,-5.7 l -52.8,46.8 c -0.59,-8.2 -4.2,-16.9 -10.8,-24.4 -13.8,-15.5 -34.39,-19 -47,-7.8 l -235.69,209" /><path
         id="path56"
         style="fill:#231f20;fill-opacity:1;fill-rule:nonzero;stroke:none"
         d="m 4695.89,4812.35 -141.6,122.7 c -21.6,-7.4 -37.9,-26.6 -32.9,-45.2 l 174.5,-77.5 z m -148.7,150.4 208.5,-184.9 -280.8,103.7 c 16.61,49.31 47.4,72.1 72.3,81.2" /><path
         id="path58"
         style="fill:#231f20;fill-opacity:1;fill-rule:nonzero;stroke:none"
         d="m 4733.49,4674.05 -345.3,110.8 c 7.2,25.2 34.2,58.6 62.1,70 l 325.2,-101.49 15.9,-13.81 c -6.2,-29.6 -27.8,-48.89 -57.9,-65.5 m -256.2,154.6 c -18.3,1.4 -31,-24.2 -21.7,-36.5 l 222.3,-68.5 c 16.3,3.2 22,11.3 24.9,28.5 l -225.5,76.5" /><path
         id="path60"
         style="fill:#231f20;fill-opacity:1;fill-rule:nonzero;stroke:none"
         d="m 4596.82,3094.59 c -5.8,-3.59 -159.7,-77.99 -415.5,127.1 l 73,-22.99 c 202.4,-158.5 322.29,-94.6 327.4,-91.51 l 8.9,21.6 c -16.4,-4 -35.9,-1.29 -56.6,13.4 -4.6,3.3 -8.7,6.91 -12.6,10.51 -50.7,13.99 -101.1,30.6 -149.9,49.29 l 5.2,13.5 c 40.3,-15 84.6,-28.6 126.2,-40 -5.8,9.91 -9.59,20.4 -11.1,31.2 -0.9,0.1 -1.9,0.1 -2.9,0.3 l 0.7,9.21 c 0.5,0 1,-0.11 1.4,-0.11 -0.3,16.3 4.5,33.01 14.81,48.6 16.19,24.6 103.09,75.71 181.69,6 130,-115.29 4,-257.1 -107.5,-282.3 16.9,-28.7 88,-158.5 34.8,-218.5 -4.7,-5.4 -11.2,-7.8 -17.7,-6.7 -14.2,2.3 -20.51,17.3 -33.2,47.3 -15.4,36.4 -38.8,91.5 -74.6,104.4 -14.3,5.11 -29.8,3.3 -47.4,-5.5 -4.8,-4.3 -9.7,-8.9 -14.7,-13.5 -32.1,-30 -68.6,-64 -109,-61 -15.6,1.11 -30.3,7.7 -43.9,19.8 -4.9,4.3 -9.6,9.3 -14.2,15 -26.1,32.7 -24.5,64.6 -23,95.4 2.1,41.6 4.3,84.6 -61.7,143.21 -31.4,27.79 -43.9,26.59 -47,25.49 -9.2,-3.19 -13.5,-26.7 -16.1,-40.8 -3.3,-17.9 -6.2,-33.4 -21.09,-35.7 -14.91,-2.4 -24.21,12.6 -33.21,29.4 -7.4,13.71 -14.5,29.4 -22,46.01 l 27.31,12.39 c 6.99,-15.4 13.59,-30.09 20.19,-42.59 4.3,22.7 8.6,57.5 32.9,65.89 20.19,7.01 51.3,-4.29 83.3,-32.7 12.5,-11 22.5,-21.79 30.9,-32.39 2.4,-0.11 5.9,-1.31 10.5,-3.3 l -3.7,-5.61 c 36.2,-51 31.5,-95.8 29.7,-130.8 -1.5,-28.7 1.5,-47.99 20.5,-71.7 12,-15.1 26.3,-20.4 38.99,-21.29 27.31,-2.01 48.41,24.8 76.11,50.6 4,3.8 26.9,30.4 55.3,36.39 l 8.3,10 11.5,-9.6 c 5,-0.9 10,-2.59 15.1,-5.4 44.9,-24.6 75.81,-76.59 93.31,-117.9 2.69,-6.5 5.29,-13.09 8.09,-19.09 25.4,10.4 -21.5,136 -64,170 -11.3,1.59 -22.7,-1.7 -32.2,3.59 l -25.9,44.11 c 83.4,-46.31 312.7,93.19 187,208.69 -65.4,60.1 -115.2,14.61 -126.8,0.8 -19.3,-23.1 -16,-57.39 18.3,-81 25.6,-17.6 48.3,-7 62.2,4.81 -8.2,0.79 -17.8,5 -26.2,12.39 -15.11,13.51 -20.7,31.9 -12.5,41.21 8.3,9.29 27.2,5.89 42.39,-7.5 8.61,-7.7 14.01,-17.01 15.71,-25.31 6.79,-20 -4.8,-46.39 -32.3,-55.5 l -3.2,-37.3" /><path
         id="path62"
         style="fill:#231f20;fill-opacity:1;fill-rule:nonzero;stroke:none"
         d="m 4535.69,4583.96 -223.19,57.6 c -21.3,-0.31 -29.6,-15.8 -24.1,-24.01 l 228.29,-61.59 c 14.4,2.3 32.7,11.79 19,28 m -246,88.7 356.61,-97.3 c -2.31,-19.5 -28.31,-55.11 -54.31,-62.1 -7.7,1.29 -366.59,90 -366.59,90 2.79,25.9 35.8,54.6 64.29,69.4" /><path
         id="path64"
         style="fill:#231f20;fill-opacity:1;fill-rule:nonzero;stroke:none"
         d="m 4619.89,4668.86 -224.6,59.89 c -18.5,-1.19 -24.89,-12.39 -16.5,-23.29 l 221.31,-63 c 14.09,0.6 21.39,13.9 19.79,26.4 m 43.41,-75.2 -356.11,101.9 c 9.41,25.69 34.6,50.69 58.5,62.9 l 357,-96.6 c -6,-28.2 -31.7,-57.2 -59.39,-68.2" /><path
         id="path66"
         style="fill:#231f20;fill-opacity:1;fill-rule:nonzero;stroke:none"
         d="m 4113.99,4487.66 c 8,-1.1 383.51,-84.5 383.51,-84.5 -2.91,-27.5 -41.01,-70.5 -71.3,-85.4 0,0 -392.31,76.2 -399.51,78.29 0.6,20.61 50.3,82.61 87.3,91.61 m 45,-30.5 c -21.3,-6.9 -42.9,-32.8 -34.89,-46.71 l 237.1,-48.79 c 33.09,1.1 54.6,27.09 30,44 l -232.21,51.5" /><path
         id="path68"
         style="fill:#231f20;fill-opacity:1;fill-rule:nonzero;stroke:none"
         d="m 4311.79,4303.06 -257.8,44.5 c -19.7,-6.8 -29.89,-18.6 -28.1,-32.6 l 260.5,-44.3 c 23.2,-1.6 39.9,15.39 25.4,32.4 m -303.89,73.4 c 7.5,-1.91 404.39,-74.41 404.39,-74.41 -5.5,-30.69 -34.79,-63.89 -61.89,-75.19 -7.1,1.8 -413.31,67.1 -420.61,69.19 5,26.41 49.4,76.41 78.11,80.41" /><path
         id="path70"
         style="fill:#231f20;fill-opacity:1;fill-rule:nonzero;stroke:none"
         d="m 4305.62,3018.39 c -7.5,-1.2 -10.5,-21.2 -6.8,-44.6 3.8,-23.5 12.9,-41.5 20.4,-40.3 7.5,1.2 10.5,21.2 6.8,44.61 -3.8,23.49 -12.9,41.49 -20.4,40.29 m 2.6,-125.6 c -43.3,46.8 -15,154.1 -70.8,201.6 l 3.7,5.61 c 45.8,-20.21 189.71,-127.61 177.4,-138.61 0,0 -74.3,-107.5 -110.3,-68.6" /><path
         id="path72"
         style="fill:#231f20;fill-opacity:1;fill-rule:nonzero;stroke:none"
         d="m 4244.19,4217.55 -291,45.2 c -8.6,-8.9 -22.2,-26.5 -35.1,-39.5 l 300.61,-50.2 c 19.69,4.41 41.39,26.31 25.49,44.5 m -329.5,62.9 c 8.1,-1.49 424.29,-67 424.29,-67 -5.89,-35.9 -36.89,-69.7 -68.29,-84.7 0,0 -431.59,65.61 -439,67.5 7.9,30.1 65,76.91 83,84.2" /><path
         id="path74"
         style="fill:#231f20;fill-opacity:1;fill-rule:nonzero;stroke:none"
         d="m 4509.39,4416.95 -379.9,87.01 c 4.5,29.4 43.41,65.69 69.5,79.29 l 375.7,-88.1 c -3.89,-27.1 -32.19,-63.29 -65.3,-78.2 m -317.1,95.4 245.9,-52.8 c 29.4,-4.79 51.81,20.5 32.21,36.2 l -241.91,54.4 c -26.6,-9 -37.8,-20.79 -36.2,-37.8" /><path
         id="path76"
         style="fill:#231f20;fill-opacity:1;fill-rule:nonzero;stroke:none"
         d="m 3813.89,4179.05 447.72,-60.7 c 5.68,-33.9 -39.82,-77.7 -69.62,-86.9 l -459.8,64.2 c 7.3,34.1 49.1,76.4 81.7,83.4 m 358,-67.9 -329.9,44.7 c -20.5,-20.8 -9,-10.8 -29.6,-31.69 l 330.11,-46.51 c 23.09,1.7 37.39,14.9 29.39,33.5" /><path
         id="path78"
         style="fill:#231f20;fill-opacity:1;fill-rule:nonzero;stroke:none"
         d="m 4095.29,4010.05 -337.3,46.5 -34.29,-38.8 342.5,-42.9 c 19.6,1.5 39.39,15.11 29.09,35.2 m -376.19,73.4 c 19.09,-2.5 465.59,-61.7 465.59,-61.7 -0.4,-29.69 -39.69,-82.19 -75.5,-93.2 l -483.79,57.3 c 0,0 42.9,100.1 93.7,97.6" /><path
         id="path80"
         style="fill:#231f20;fill-opacity:1;fill-rule:nonzero;stroke:none"
         d="m 3931.49,3778.46 -169.89,20.09 c -3.3,7.21 -6.01,13.71 -8.3,19.21 55.99,-6.71 240.4,-29.21 244.49,-30.4 -3.1,-17.6 -37.7,-78.3 -73.9,-94.21 -4.79,1.21 -78.2,12.5 -117.4,18.51 -9.2,15.8 -17.3,30.7 -24.3,44.3 l 115.31,-17.61 c 24.89,-0.2 33.99,40.11 33.99,40.11" /><path
         id="path82"
         style="fill:#231f20;fill-opacity:1;fill-rule:nonzero;stroke:none"
         d="m 3962.72,3331.69 c 34.1,-22.19 179.5,-127.79 178.3,-137.79 -1.3,-11.31 -60.7,-0.71 -60.1,-40.2 -12.59,2.19 -28.2,100.09 -117.8,174.89 -0.7,0.51 -1.1,0.91 -1.6,1.3 l 1.2,1.8" /><path
         id="path84"
         style="fill:#231f20;fill-opacity:1;fill-rule:nonzero;stroke:none"
         d="m 3955.62,3335.49 c -0.4,0.7 2.2,-0.7 7.1,-3.8 l -1.2,-1.8 c 54.9,-52.6 78.1,-132.6 101.81,-184.8 l -27.31,-12.39 c -42.6,93.79 -115.9,221.79 -298.1,197.59 l 44.2,49.91 c 81.9,10.89 134.2,-8.71 173.5,-44.71" /><path
         id="path86"
         style="fill:#231f20;fill-opacity:1;fill-rule:nonzero;stroke:none"
         d="m 3909.49,3665.16 c -1.59,-9.31 -12.1,-30.8 -27.1,-51.3 -13.1,14.89 -31.7,41.79 -40.79,60.1 37.69,-4.7 66.3,-8.31 67.89,-8.8" /><path
         id="path88"
         style="fill:#231f20;fill-opacity:1;fill-rule:nonzero;stroke:none"
         d="m 3819.32,3712.9 c 7,-13.6 15.1,-28.51 24.3,-44.31 -14.4,2.21 -24.2,3.7 -24.2,3.7 l -34.1,45.81 34,-5.2" /><path
         id="path90"
         style="fill:#231f20;fill-opacity:1;fill-rule:nonzero;stroke:none"
         d="m 3798.73,3755.49 -32.61,3.9 8.3,17.3 c 0,0 5.9,-0.7 16,-2 2.3,-5.5 5,-11.99 8.31,-19.2" /><path
         id="path92"
         style="fill:#231f20;fill-opacity:1;fill-rule:nonzero;stroke:none"
         d="m 3738.02,3837.9 -5.3,-17.7 -25.4,25.6 c 19.6,-5.71 30.7,-7.9 30.7,-7.9" /><path
         id="path94"
         style="fill:#231f20;fill-opacity:1;fill-rule:nonzero;stroke:none"
         d="m 3785.32,3718.1 34.1,-45.81 c 0,0 9.8,-1.49 24.2,-3.7 53.5,-91.59 145.3,-215.89 291,-321.09 159.11,-107.8 323.71,-128.4 355,-131.3 l -0.7,-9.2 c -24.9,1.9 -91.6,8.89 -164.2,29.8 16.11,-7.3 33.7,-14.4 52,-21.31 l -5.2,-13.49 c -137.6,52.3 -262.79,120.9 -346.3,194.89 -188.2,166.9 -278.3,339.71 -295,374 -0.4,-0.4 -0.8,-0.79 -1.2,-1.3 l -4.7,4.11 3,3.39 53.2,23.01 0.1,0 c 0,0 3,-9.21 9.8,-25.4 -10.1,1.3 -16,1.99 -16,1.99 l -8.3,-17.3 32.61,-3.9 c 5.39,-12.19 12.29,-26.5 20.59,-42.59 l -34,5.2" /><path
         id="path96"
         style="fill:#231f20;fill-opacity:1;fill-rule:nonzero;stroke:none"
         d="m 4020,3901.86 -402.91,50.29 c 3.8,3.81 0,0 0,0 -10.8,-10.69 -21.5,-21.3 -33.3,-33.09 -2.7,1.1 -5.49,2.19 -8.3,3.4 l -8.3,8.19 c 5.9,21.41 22.59,39.6 44.9,45.11 26.7,-3.5 478.2,-60.51 485.41,-62.1 -6.11,-42.41 -60.31,-92.2 -81.01,-102.9 -3.99,0.4 -195.9,23.2 -273,32.39 l -0.1,0 c -19.4,2.3 -31.5,3.71 -31.5,3.71 l -144.7,60.28 417.59,-46.58 c 16.82,1.5 37.41,27.59 35.22,41.3" /><path
         id="path98"
         style="fill:#231f20;fill-opacity:1;fill-rule:nonzero;stroke:none"
         d="m 3729.02,3769.59 c -3,-3.5 -7.4,-9.7 -9.79,-18.5 31.69,-97.79 232,-325.4 232,-325.4 l -298.71,255.51 c -1.9,-1.2 -4.7,-3.3 -7.4,-6.41 l -4.8,4.2 6.41,7.21 0.89,0.99 68.21,76.91 8.49,9.6 4.7,-4.11" /><path
         id="path100"
         style="fill:#231f20;fill-opacity:1;fill-rule:nonzero;stroke:none"
         d="m 3640.32,3678.99 4.79,-4.2 c -3.49,-3.99 -6.59,-9.59 -6.38,-16.69 l 534.6,-446.01 292.99,-244.5 -8.3,-10 -847.91,685.31 18.91,23.3 11.3,12.79" /><path
         id="path102"
         style="fill:#231f20;fill-opacity:1;fill-rule:nonzero;stroke:none"
         d="m 3719.72,3780.2 -9.7,-11.01 -68.2,-76.9 -0.8,-1 -5.4,-5.99 -4.7,4.2 c 2.1,2.59 3.6,5.2 4.4,6.9 l -289.2,265.89 c 7.61,-5.2 251.4,-171.89 350.6,-191.2 9.7,3.81 15.7,10 18.4,13.21 l 4.6,-4.1" /><path
         id="path104"
         style="fill:#231f20;fill-opacity:1;fill-rule:nonzero;stroke:none"
         d="m 3635.62,3685.29 -12.4,-14 -20.8,-21.5 -781.9,759.7 8.9,9.4 277.8,-261.6 506.8,-477.29 c 7.8,0.69 13.3,5.09 16.9,9.49 l 4.7,-4.2" /><path
         id="path106"
         style="fill:#231f20;fill-opacity:1;fill-rule:nonzero;stroke:none"
         d="m 3620.92,3875.99 c -0.7,-0.8 -1.6,-1.7 -2.4,-2.5 l -5.9,5.9 c 2.8,-1.2 5.6,-2.3 8.3,-3.4" /><path
         id="path108"
         style="fill:#231f20;fill-opacity:1;fill-rule:nonzero;stroke:none"
         d="m 3372.52,3797.59 c 0,0 25.81,-63.7 -3.7,-99.1 l 0.1,-0.1 c -0.1,0 -0.3,-0.3 -0.4,-0.4 -0.3,-0.3 -0.5,-0.7 -0.79,-1.1 l -0.11,0.1 c -34.1,-37.9 -759.7,-844.6 -1471.39,-1684 C 712.313,616.492 437.113,159.59 417.727,43.3906 530.727,76.6016 951.426,404.5 2196.03,1747.09 c 748.19,807.01 1462.3,1624 1495.79,1662.4 0.7,0.7 1.2,1.3 1.3,1.5 l 0.1,-0.2 c 31.6,33.6 98.01,15.5 98.01,15.5 l 25.79,-12.5 c -43.2,12.7 -95.1,-30.7 -95.2,-30.8 -35.8,-41 -749.09,-856.9 -1496.4,-1663.09 C 1777.11,1236.39 1404.53,850.891 1117.83,574.191 750.922,220.09 487.523,0.992188 397.313,0.191406 L 379.324,0 377.313,17.9922 c -10,89.5978 175.914,377.4058 483.609,784.0978 240.398,317.7 578.408,733.8 1004.808,1236.7 713.49,841.6 1440.89,1650.3 1472.39,1685.3 3.7,5.8 35.7,58.5 18.8,97.6 l 15.6,-24.1" /><path
         id="path110"
         style="fill:#231f20;fill-opacity:1;fill-rule:nonzero;stroke:none"
         d="m 3255.92,3955.89 c 40.4,-34.69 66,-84.3 65,-166.9 l -44.2,-49.8 c 2.2,183.8 -133.6,241.3 -231.9,272.3 -12.3,3.8 -24.1,7.6 -35.1,11.5 l 9.8,28.3 c 10.6,-3.7 22.2,-7.4 34.4,-11.2 54.3,-17.1 136.1,-30.6 194.81,-78.2 0,0 0.09,0 0.09,-0.1 0.3,-0.2 0.5,-0.4 0.8,-0.59 l 1.61,1.3 c 3.39,-4.2 5.19,-6.61 4.69,-6.61" /><path
         id="path112"
         style="fill:#231f20;fill-opacity:1;fill-rule:nonzero;stroke:none"
         d="m 3093.02,4123.1 c 9.8,2.5 132.1,-129.31 158.21,-160.6 l -1.61,-1.3 c -0.3,0.2 -0.5,0.4 -0.8,0.6 0,0.09 -0.09,0.09 -0.09,0.09 -0.21,0.2 -0.4,0.4 -0.71,0.71 -84.9,80 -184,83.8 -187.7,95.99 39.3,4.11 21.7,61.81 32.7,64.51" /><path
         id="path114"
         style="fill:#231f20;fill-opacity:1;fill-rule:nonzero;stroke:none"
         d="m 3308.52,4032.5 c -79.1,70.1 -157.8,177.9 -224.1,299.8 l 12.7,6.9 c 5.5,-10 11,-19.5 16.5,-28.6 -29.6,70.1 -44.6,136.1 -49.5,160.1 l 9.1,1.9 c 6.4,-29.1 46.2,-191.4 173.02,-337.5 127.28,-137.81 268.18,-214.8 366.38,-255.71 l 5.9,-5.89 c 0.8,0.8 1.7,1.7 2.4,2.5 36.1,-14.71 65.9,-24.31 86.4,-30.2 l 25.4,-25.6 -11.2,-38 -1.8,-2 -4.6,4.1 c -36.1,12.5 -218.4,81.3 -406.6,248.2" /><path
         id="path116"
         style="fill:#231f20;fill-opacity:1;fill-rule:nonzero;stroke:none"
         d="m 3084.42,4332.3 c -28.59,52.5 -54.8,107.59 -77.8,163.5 -4.1,3.4 -8.1,7.09 -11.9,11.29 -17.2,18.71 -22.1,37.8 -20.1,54.51 l -20.5,-11.31 c -2.4,-5.49 -51.4,-132.19 130.1,-314.2 l 31.61,-69.7 c -234.31,229.41 -178.81,391.11 -175.91,397.31 l 36.6,7.59 c 5.8,28.4 30.6,43.1 51.3,38.71 8.41,-0.61 18.3,-4.8 27,-12.5 15.1,-13.4 20.7,-31.9 12.5,-41.21 -8.3,-9.3 -27.2,-5.9 -42.4,7.5 -8.4,7.5 -13.69,16.41 -15.5,24.51 -10.1,-15.2 -17.9,-39.01 2.7,-62.3 27.5,-31.2 62,-30.4 82.6,-8.41 12.3,13.1 51.51,68.01 -15.9,125.71 -129.7,110.99 -240.8,-133.41 -184.9,-210.6 l -46.8,20.4 c -6.4,8.79 -4.5,20.6 -7.5,31.59 -38.79,38.1 -169.1,69.6 -176.4,43.1 6.3,-1.99 13.1,-3.79 19.9,-5.8 43.11,-12.4 98.4,-36.79 128.3,-78.4 3.3,-4.7 5.6,-9.49 7.1,-14.39 l 10.9,-10.31 -8.9,-9.4 c -2.5,-28.89 -26.2,-54.8 -29.5,-59.29 -22.29,-30.51 -46.4,-54.71 -41.2,-81.5 2.5,-12.61 9.4,-26.11 25.8,-36.31 25.8,-16 45.4,-16.59 73.7,-11.7 34.5,5.91 78.4,16.01 133.4,-13.8 l 6.3,2.21 c 1.9,-3.3 3,-6 3.3,-7.9 11.6,-7.1 23.51,-15.71 35.9,-26.81 32.1,-28.39 47,-57.9 42.5,-78.79 -5.4,-25.11 -39.49,-33.61 -61.5,-40.51 3.3,-1.3 6.7,-2.5 10.3,-3.8 l -9.8,-28.3 c -4.5,1.5 -8.89,3.1 -13.2,4.8 -17.79,7 -33.7,14.4 -33.19,29.5 0.59,15.1 15.59,19.8 32.99,25.21 13.6,4.19 36.5,11.39 38.6,20.89 0.6,3.21 0.4,15.71 -31,43.6 -66,58.5 -108.5,51.2 -149.5,44.1 -30.5,-5.2 -61.9,-10.6 -97.5,11.41 -6.2,3.89 -11.7,7.99 -16.6,12.29 -13.6,12 -21.99,25.9 -25,41.3 -7.7,39.71 21.7,79.91 47.6,115.51 4,5.49 7.91,10.9 11.7,16.19 6.61,18.5 6.5,34.1 -0.3,47.6 -17,34.1 -74.6,50.7 -112.6,61.6 -31.2,9.01 -46.9,13.5 -50.89,27.3 -1.91,6.4 -0.21,13.1 4.49,18.5 53.2,59.91 190.6,4.91 221.1,-8.5 11.7,113.7 137.4,255.8 267.4,140.51 78.6,-69.6 38.3,-162.01 15.9,-181.1 -14.4,-12.1 -30.3,-18.81 -46.6,-20.4 0,-0.2 0.1,-0.51 0.1,-0.71 l -9.1,-1.9 c -0.1,0.81 -0.3,1.5 -0.39,2.2 -10.81,0.21 -21.71,2.71 -32.31,7.31 19.3,-47.21 42,-97.81 65.7,-141 l -12.7,-6.9" /><path
         id="path118"
         style="fill:#231f20;fill-opacity:1;fill-rule:nonzero;stroke:none"
         d="m 2855.62,4253.39 c 23.7,-0.89 43.2,4.5 43.5,12.1 0.3,7.6 -18.7,14.51 -42.4,15.4 -23.8,0.9 -43.3,-4.5 -43.6,-12.1 -0.3,-7.59 18.7,-14.5 42.5,-15.4 m 127.1,-46.5 c -53.9,49.7 -157,8.7 -208.6,46.1 -43,31.21 54.8,117.7 54.8,117.7 9.7,13.8 137.7,-120.89 160.1,-161.6 l -6.3,-2.2" /><path
         id="path120"
         style="fill:#231f20;fill-opacity:1;fill-rule:nonzero;stroke:none"
         d="m 2213.92,2141.49 c 577.31,657.8 1145.1,1309.9 1265.8,1448.51 -6.39,86.29 -74.7,175 -119.2,234.4 -24.69,32.99 -42,56.89 -37.19,66.29 l 255.19,-259.7 c 0,0 -65.6,-89.8 -104.5,-131.9 -16.3,-17.6 -27.9,-26.9 -28.1,-17.8 20.7,25.41 30.8,52.6 33.4,80.41 -146.5,-164.91 -701.1,-789.4 -1258.9,-1425 C 1164.32,933.391 874.418,577.289 825.82,503.699 c 67.301,57.102 386.1,387.5 1454.3,1580.001 568.8,634.99 1126.7,1265.39 1267.4,1424.4 -29.6,-5.2 -57.6,-18.61 -82.2,-44.01 -9.6,-0.9 -0.1,13.5 17.5,33.81 38.41,44.09 115.2,115.79 115.2,115.79 l 288.5,-222.3 c -8.5,-5.7 -32.9,7.5 -66.8,27 -62.5,35.81 -157.3,93 -243.49,92.3 -121.51,-134.3 -705,-779.1 -1290.61,-1432.79 -384.7,-429.51 -699,-777.01 -934.1,-1032.9 -300.9,-327.5 -491.903,-527.41 -537,-558.109 l -8.997,-6.09 5,9.691 c 25.098,48.399 200.597,261.906 489.697,599.908 226,264.1 533.3,617.69 913.7,1051.09" /></g></g></svg>